ISO-10303-21;
HEADER;
FILE_DESCRIPTION (( 'STEP AP214' ),
    '1' );
FILE_NAME ('Sign_Pin.step',
    '2026-09-26T14:43:18',
    ( '' ),
    ( '' ),
    'SwSTEP 2.0',
    'SolidWorks 2026',
    '' );
FILE_SCHEMA (( 'AUTOMOTIVE_DESIGN' ));
ENDSEC;

DATA;
#1 = ORIENTED_EDGE ( 'NONE', *, *, #274, .F. ) ;
#2 = ORIENTED_EDGE ( 'NONE', *, *, #100, .T. ) ;
#3 = AXIS2_PLACEMENT_3D ( 'NONE', #170, #146, #96 ) ;
#4 = ORIENTED_EDGE ( 'NONE', *, *, #29, .T. ) ;
#5 = ORIENTED_EDGE ( 'NONE', *, *, #289, .T. ) ;
#6 = DIRECTION ( 'NONE',  ( 1.000000000000000000, -0.000000000000000000, -0.000000000000000000 ) ) ;
#7 = EDGE_LOOP ( 'NONE', ( #303, #266 ) ) ;
#8 = DIRECTION ( 'NONE',  ( 1.000000000000000000, 0.000000000000000000, 0.000000000000000000 ) ) ;
#9 = CARTESIAN_POINT ( 'NONE',  ( -47.39999999999999858, 20.03999999999999559, -6.704999999999999183 ) ) ;
#10 = DIRECTION ( 'NONE',  ( 0.000000000000000000, 0.000000000000000000, -1.000000000000000000 ) ) ;
#11 = ADVANCED_FACE ( 'NONE', ( #113 ), #290, .F. ) ;
#12 = AXIS2_PLACEMENT_3D ( 'NONE', #214, #19, #297 ) ;
#13 = CARTESIAN_POINT ( 'NONE',  ( 0.000000000000000000, 0.000000000000000000, 0.000000000000000000 ) ) ;
#14 = FACE_BOUND ( 'NONE', #108, .T. ) ;
#15 = CONICAL_SURFACE ( 'NONE', #3, 2.700000000000001066, 0.6981317007977317912 ) ;
#16 = CARTESIAN_POINT ( 'NONE',  ( -46.55999999999999517, 20.03999999999999559, -5.604999999999998650 ) ) ;
#17 = DIRECTION ( 'NONE',  ( 1.000000000000000000, 0.000000000000000000, 0.000000000000000000 ) ) ;
#18 = CIRCLE ( 'NONE', #212, 1.600000000000000755 ) ;
#19 = DIRECTION ( 'NONE',  ( 1.000000000000000000, 0.000000000000000000, 0.000000000000000000 ) ) ;
#20 = DIRECTION ( 'NONE',  ( 1.000000000000000000, -0.000000000000000000, -0.000000000000000000 ) ) ;
#21 = MANIFOLD_SOLID_BREP ( 'End_Chamfer', #254 ) ;
#22 = DIRECTION ( 'NONE',  ( 1.000000000000000000, 0.000000000000000000, 0.000000000000000000 ) ) ;
#23 = CYLINDRICAL_SURFACE ( 'NONE', #28, 1.600000000000000755 ) ;
#24 = ADVANCED_FACE ( 'NONE', ( #89 ), #180, .T. ) ;
#25 = ORIENTED_EDGE ( 'NONE', *, *, #222, .F. ) ;
#26 = AXIS2_PLACEMENT_3D ( 'NONE', #258, #67, #234 ) ;
#27 = ORIENTED_EDGE ( 'NONE', *, *, #165, .F. ) ;
#28 = AXIS2_PLACEMENT_3D ( 'NONE', #98, #198, #238 ) ;
#29 = EDGE_CURVE ( 'NONE', #62, #312, #223, .T. ) ;
#30 = EDGE_LOOP ( 'NONE', ( #131, #82, #105, #205 ) ) ;
#31 = ORIENTED_EDGE ( 'NONE', *, *, #292, .F. ) ;
#32 = ORIENTED_EDGE ( 'NONE', *, *, #87, .T. ) ;
#33 = CARTESIAN_POINT ( 'NONE',  ( -45.96000000000000085, 20.03999999999999559, -7.504999999999999893 ) ) ;
#34 = DIRECTION ( 'NONE',  ( 0.000000000000000000, 0.000000000000000000, -1.000000000000000000 ) ) ;
#35 = CARTESIAN_POINT ( 'NONE',  ( -46.55999999999999517, 20.03999999999999559, -9.105000000000000426 ) ) ;
#36 =( NAMED_UNIT ( * ) SI_UNIT ( $, .STERADIAN. ) SOLID_ANGLE_UNIT ( ) );
#37 = CARTESIAN_POINT ( 'NONE',  ( -51.20000000000000284, 20.03999999999999559, -8.304999999999999716 ) ) ;
#38 = EDGE_CURVE ( 'NONE', #225, #132, #137, .T. ) ;
#39 = DIRECTION ( 'NONE',  ( 1.000000000000000000, 0.000000000000000000, 0.000000000000000000 ) ) ;
#40 =( NAMED_UNIT ( * ) SI_UNIT ( $, .STERADIAN. ) SOLID_ANGLE_UNIT ( ) );
#41 = DIRECTION ( 'NONE',  ( 0.000000000000000000, 0.000000000000000000, -1.000000000000000000 ) ) ;
#42 = DIRECTION ( 'NONE',  ( 0.000000000000000000, 0.000000000000000000, -1.000000000000000000 ) ) ;
#43 = DIRECTION ( 'NONE',  ( 1.000000000000000000, 0.000000000000000000, 0.000000000000000000 ) ) ;
#44 = SURFACE_SIDE_STYLE ('',( #155 ) ) ;
#45 = CARTESIAN_POINT ( 'NONE',  ( -51.00000000000000711, 20.03999999999999559, -6.704999999999999183 ) ) ;
#46 = AXIS2_PLACEMENT_3D ( 'NONE', #265, #17, #63 ) ;
#47 = PLANE ( 'NONE',  #197 ) ;
#48 = CYLINDRICAL_SURFACE ( 'NONE', #181, 0.8000000000000003775 ) ;
#49 = AXIS2_PLACEMENT_3D ( 'NONE', #241, #22, #124 ) ;
#50 = EDGE_CURVE ( 'NONE', #305, #111, #247, .T. ) ;
#51 = DIRECTION ( 'NONE',  ( 0.000000000000000000, 0.000000000000000000, 1.000000000000000000 ) ) ;
#52 = EDGE_CURVE ( 'NONE', #107, #312, #118, .T. ) ;
#53 = DIRECTION ( 'NONE',  ( 1.000000000000000000, -0.000000000000000000, -0.000000000000000000 ) ) ;
#54 = FACE_BOUND ( 'NONE', #7, .T. ) ;
#55 = ORIENTED_EDGE ( 'NONE', *, *, #308, .T. ) ;
#56 = ORIENTED_EDGE ( 'NONE', *, *, #289, .F. ) ;
#57 = AXIS2_PLACEMENT_3D ( 'NONE', #68, #208, #318 ) ;
#58 = ORIENTED_EDGE ( 'NONE', *, *, #240, .T. ) ;
#59 = VECTOR ( 'NONE', #244, 1000.000000000000000 ) ;
#60 = ORIENTED_EDGE ( 'NONE', *, *, #130, .T. ) ;
#61 = AXIS2_PLACEMENT_3D ( 'NONE', #327, #53, #242 ) ;
#62 = VERTEX_POINT ( 'NONE', #328 ) ;
#63 = DIRECTION ( 'NONE',  ( 0.000000000000000000, 0.000000000000000000, -1.000000000000000000 ) ) ;
#64 = CIRCLE ( 'NONE', #26, 2.700000000000001066 ) ;
#65 = ORIENTED_EDGE ( 'NONE', *, *, #92, .F. ) ;
#66 = VERTEX_POINT ( 'NONE', #103 ) ;
#67 = DIRECTION ( 'NONE',  ( 1.000000000000000000, 0.000000000000000000, 0.000000000000000000 ) ) ;
#68 = CARTESIAN_POINT ( 'NONE',  ( -51.20000000000000284, 20.03999999999999559, -8.304999999999999716 ) ) ;
#69 = CARTESIAN_POINT ( 'NONE',  ( -51.00000000000000711, 20.03999999999999559, -8.304999999999999716 ) ) ;
#70 = DIRECTION ( 'NONE',  ( 0.000000000000000000, 0.000000000000000000, -1.000000000000000000 ) ) ;
#71 = ORIENTED_EDGE ( 'NONE', *, *, #38, .T. ) ;
#72 = DIRECTION ( 'NONE',  ( 0.7071067811865474617, 0.000000000000000000, -0.7071067811865474617 ) ) ;
#73 = CARTESIAN_POINT ( 'NONE',  ( -46.55999999999999517, 20.03999999999999559, -8.304999999999999716 ) ) ;
#74 = DIRECTION ( 'NONE',  ( 1.000000000000000000, 0.000000000000000000, 0.000000000000000000 ) ) ;
#75 = CIRCLE ( 'NONE', #153, 1.400000000000001910 ) ;
#76 = DIRECTION ( 'NONE',  ( 0.000000000000000000, 0.000000000000000000, -1.000000000000000000 ) ) ;
#77 = VECTOR ( 'NONE', #324, 1000.000000000000227 ) ;
#78 = ADVANCED_FACE ( 'NONE', ( #54, #145 ), #267, .T. ) ;
#79 = CARTESIAN_POINT ( 'NONE',  ( -45.96000000000000085, 20.03999999999999559, -8.304999999999999716 ) ) ;
#80 = FACE_OUTER_BOUND ( 'NONE', #110, .T. ) ;
#81 = EDGE_LOOP ( 'NONE', ( #281, #31, #55, #60 ) ) ;
#82 = ORIENTED_EDGE ( 'NONE', *, *, #183, .F. ) ;
#83 = ADVANCED_FACE ( 'NONE', ( #189 ), #23, .T. ) ;
#84 = ORIENTED_EDGE ( 'NONE', *, *, #92, .T. ) ;
#85 = PRODUCT_DEFINITION_FORMATION_WITH_SPECIFIED_SOURCE ( 'ANY', '', #203, .NOT_KNOWN. ) ;
#86 = ORIENTED_EDGE ( 'NONE', *, *, #261, .F. ) ;
#87 = EDGE_CURVE ( 'NONE', #305, #283, #219, .T. ) ;
#88 = ORIENTED_EDGE ( 'NONE', *, *, #282, .T. ) ;
#89 = FACE_OUTER_BOUND ( 'NONE', #174, .T. ) ;
#90 = CARTESIAN_POINT ( 'NONE',  ( -47.39999999999999858, 20.03999999999999559, -10.30015630981108465 ) ) ;
#91 = CIRCLE ( 'NONE', #257, 0.8000000000000003775 ) ;
#92 = EDGE_CURVE ( 'NONE', #225, #259, #129, .T. ) ;
#93 = DIRECTION ( 'NONE',  ( 0.7660444431189781245, 0.000000000000000000, -0.6427876096865391409 ) ) ;
#94 = ORIENTED_EDGE ( 'NONE', *, *, #50, .T. ) ;
#95 = CARTESIAN_POINT ( 'NONE',  ( -46.55999999999999517, 20.03999999999999559, -11.00500000000000078 ) ) ;
#96 = DIRECTION ( 'NONE',  ( 0.000000000000000000, 0.000000000000000000, -1.000000000000000000 ) ) ;
#97 = PRODUCT_CONTEXT ( 'NONE', #252, 'mechanical' ) ;
#98 = CARTESIAN_POINT ( 'NONE',  ( -47.39999999999999858, 20.03999999999999559, -8.304999999999999716 ) ) ;
#99 = CARTESIAN_POINT ( 'NONE',  ( -46.55999999999999517, 20.03999999999999559, -8.304999999999999716 ) ) ;
#100 = EDGE_CURVE ( 'NONE', #66, #62, #301, .T. ) ;
#101 = DIRECTION ( 'NONE',  ( -1.000000000000000000, -0.000000000000000000, -0.000000000000000000 ) ) ;
#102 = SHAPE_DEFINITION_REPRESENTATION ( #150, #123 ) ;
#103 = CARTESIAN_POINT ( 'NONE',  ( -51.20000000000000284, 20.03999999999999559, -9.705000000000001847 ) ) ;
#104 = AXIS2_PLACEMENT_3D ( 'NONE', #117, #43, #260 ) ;
#105 = ORIENTED_EDGE ( 'NONE', *, *, #274, .T. ) ;
#106 = CIRCLE ( 'NONE', #304, 1.600000000000000755 ) ;
#107 = VERTEX_POINT ( 'NONE', #269 ) ;
#108 = EDGE_LOOP ( 'NONE', ( #176, #277 ) ) ;
#109 = ADVANCED_FACE ( 'NONE', ( #213 ), #48, .T. ) ;
#110 = EDGE_LOOP ( 'NONE', ( #185, #84, #58, #56 ) ) ;
#111 = VERTEX_POINT ( 'NONE', #299 ) ;
#112 = DIRECTION ( 'NONE',  ( 0.000000000000000000, 0.000000000000000000, -1.000000000000000000 ) ) ;
#113 = FACE_OUTER_BOUND ( 'NONE', #151, .T. ) ;
#114 = CARTESIAN_POINT ( 'NONE',  ( -51.00000000000000711, 20.03999999999999559, -6.704999999999999183 ) ) ;
#115 = AXIS2_PLACEMENT_3D ( 'NONE', #125, #272, #51 ) ;
#116 = SURFACE_STYLE_USAGE ( .BOTH. , #44 ) ;
#117 = CARTESIAN_POINT ( 'NONE',  ( -46.55999999999999517, 20.03999999999999559, -8.304999999999999716 ) ) ;
#118 = LINE ( 'NONE', #45, #287 ) ;
#119 = MECHANICAL_DESIGN_GEOMETRIC_PRESENTATION_REPRESENTATION (  '', ( #334 ), #237 ) ;
#120 = UNCERTAINTY_MEASURE_WITH_UNIT (LENGTH_MEASURE( 1.000000000000000082E-05 ), #184, 'distance_accuracy_value', 'NONE');
#121 = DIRECTION ( 'NONE',  ( 0.7071067811865474617, 8.659560562354932858E-17, 0.7071067811865474617 ) ) ;
#122 = DIRECTION ( 'NONE',  ( 0.000000000000000000, 0.000000000000000000, -1.000000000000000000 ) ) ;
#123 = ADVANCED_BREP_SHAPE_REPRESENTATION ( 'Sign_Pin', ( #21, #310 ), #280 ) ;
#124 = DIRECTION ( 'NONE',  ( 0.000000000000000000, 0.000000000000000000, -1.000000000000000000 ) ) ;
#125 = CARTESIAN_POINT ( 'NONE',  ( -47.39999999999999858, 20.03999999999999559, -8.304999999999999716 ) ) ;
#126 = EDGE_LOOP ( 'NONE', ( #311, #227, #2, #147 ) ) ;
#127 = VECTOR ( 'NONE', #230, 1000.000000000000000 ) ;
#128 = EDGE_LOOP ( 'NONE', ( #248, #65 ) ) ;
#129 = CIRCLE ( 'NONE', #166, 1.995156309811084494 ) ;
#130 = EDGE_CURVE ( 'NONE', #312, #62, #106, .T. ) ;
#131 = ORIENTED_EDGE ( 'NONE', *, *, #87, .F. ) ;
#132 = VERTEX_POINT ( 'NONE', #329 ) ;
#133 = EDGE_LOOP ( 'NONE', ( #335, #5 ) ) ;
#134 = DIRECTION ( 'NONE',  ( 1.000000000000000000, 0.000000000000000000, 0.000000000000000000 ) ) ;
#135 = DIRECTION ( 'NONE',  ( 0.000000000000000000, 0.000000000000000000, -1.000000000000000000 ) ) ;
#136 = FILL_AREA_STYLE ('',( #313 ) ) ;
#137 = LINE ( 'NONE', #16, #77 ) ;
#138 = DIRECTION ( 'NONE',  ( -1.000000000000000000, -0.000000000000000000, -0.000000000000000000 ) ) ;
#139 = PRESENTATION_STYLE_ASSIGNMENT (( #116 ) ) ;
#140 = CIRCLE ( 'NONE', #46, 1.995156309811084494 ) ;
#141 = CARTESIAN_POINT ( 'NONE',  ( -47.39999999999999858, 20.03999999999999559, -8.304999999999999716 ) ) ;
#142 = DIRECTION ( 'NONE',  ( -1.000000000000000000, -0.000000000000000000, -0.000000000000000000 ) ) ;
#143 = DIRECTION ( 'NONE',  ( 1.000000000000000000, 0.000000000000000000, 0.000000000000000000 ) ) ;
#144 = CARTESIAN_POINT ( 'NONE',  ( -45.96000000000000085, 20.03999999999999559, -8.304999999999999716 ) ) ;
#145 = FACE_OUTER_BOUND ( 'NONE', #133, .T. ) ;
#146 = DIRECTION ( 'NONE',  ( 1.000000000000000000, 0.000000000000000000, 0.000000000000000000 ) ) ;
#147 = ORIENTED_EDGE ( 'NONE', *, *, #130, .F. ) ;
#148 = EDGE_LOOP ( 'NONE', ( #86, #315, #221, #172 ) ) ;
#149 = ORIENTED_EDGE ( 'NONE', *, *, #306, .T. ) ;
#150 = PRODUCT_DEFINITION_SHAPE ( 'NONE', 'NONE',  #298 ) ;
#151 = EDGE_LOOP ( 'NONE', ( #307, #173 ) ) ;
#152 = ORIENTED_EDGE ( 'NONE', *, *, #249, .T. ) ;
#153 = AXIS2_PLACEMENT_3D ( 'NONE', #37, #207, #135 ) ;
#154 = DIRECTION ( 'NONE',  ( -1.000000000000000000, -0.000000000000000000, -0.000000000000000000 ) ) ;
#155 = SURFACE_STYLE_FILL_AREA ( #136 ) ;
#156 = CARTESIAN_POINT ( 'NONE',  ( -47.39999999999999858, 20.03999999999999559, -6.704999999999999183 ) ) ;
#157 =( LENGTH_UNIT ( ) NAMED_UNIT ( * ) SI_UNIT ( .MILLI., .METRE. ) );
#158 = DIRECTION ( 'NONE',  ( 0.000000000000000000, 0.000000000000000000, -1.000000000000000000 ) ) ;
#159 = ADVANCED_FACE ( 'NONE', ( #190 ), #167, .T. ) ;
#160 = CARTESIAN_POINT ( 'NONE',  ( -47.39999999999999858, 20.03999999999999559, -9.905000000000001137 ) ) ;
#161 = DIRECTION ( 'NONE',  ( 0.000000000000000000, 0.000000000000000000, 1.000000000000000000 ) ) ;
#162 = DIRECTION ( 'NONE',  ( 1.000000000000000000, 0.000000000000000000, 0.000000000000000000 ) ) ;
#163 = VECTOR ( 'NONE', #138, 1000.000000000000000 ) ;
#164 = DIRECTION ( 'NONE',  ( 1.000000000000000000, 0.000000000000000000, 0.000000000000000000 ) ) ;
#165 = EDGE_CURVE ( 'NONE', #202, #226, #201, .T. ) ;
#166 = AXIS2_PLACEMENT_3D ( 'NONE', #141, #74, #215 ) ;
#167 = CYLINDRICAL_SURFACE ( 'NONE', #115, 1.600000000000000755 ) ;
#168 = ADVANCED_FACE ( 'NONE', ( #332 ), #217, .T. ) ;
#169 = DIRECTION ( 'NONE',  ( 0.000000000000000000, 0.000000000000000000, -1.000000000000000000 ) ) ;
#170 = CARTESIAN_POINT ( 'NONE',  ( -46.55999999999999517, 20.03999999999999559, -8.304999999999999716 ) ) ;
#171 = PRESENTATION_LAYER_ASSIGNMENT (  '', '', ( #334 ) ) ;
#172 = ORIENTED_EDGE ( 'NONE', *, *, #100, .F. ) ;
#173 = ORIENTED_EDGE ( 'NONE', *, *, #261, .T. ) ;
#174 = EDGE_LOOP ( 'NONE', ( #224, #94 ) ) ;
#175 = ORIENTED_EDGE ( 'NONE', *, *, #50, .F. ) ;
#176 = ORIENTED_EDGE ( 'NONE', *, *, #292, .T. ) ;
#177 = FACE_OUTER_BOUND ( 'NONE', #284, .T. ) ;
#178 = CARTESIAN_POINT ( 'NONE',  ( -51.00000000000000711, 20.03999999999999559, -8.304999999999999716 ) ) ;
#179 = AXIS2_PLACEMENT_3D ( 'NONE', #256, #293, #34 ) ;
#180 = PLANE ( 'NONE',  #319 ) ;
#181 = AXIS2_PLACEMENT_3D ( 'NONE', #144, #142, #161 ) ;
#182 = CARTESIAN_POINT ( 'NONE',  ( -46.55999999999999517, 20.03999999999999559, -8.304999999999999716 ) ) ;
#183 = EDGE_CURVE ( 'NONE', #111, #305, #91, .T. ) ;
#184 =( LENGTH_UNIT ( ) NAMED_UNIT ( * ) SI_UNIT ( .MILLI., .METRE. ) );
#185 = ORIENTED_EDGE ( 'NONE', *, *, #38, .F. ) ;
#186 = CARTESIAN_POINT ( 'NONE',  ( -46.55999999999999517, 20.03999999999999559, -11.00500000000000078 ) ) ;
#187 = CARTESIAN_POINT ( 'NONE',  ( -47.39999999999999858, 20.03999999999999559, -9.905000000000001137 ) ) ;
#188 = DIRECTION ( 'NONE',  ( 0.000000000000000000, 0.000000000000000000, -1.000000000000000000 ) ) ;
#189 = FACE_OUTER_BOUND ( 'NONE', #245, .T. ) ;
#190 = FACE_OUTER_BOUND ( 'NONE', #81, .T. ) ;
#191 = CIRCLE ( 'NONE', #57, 1.400000000000001910 ) ;
#192 = DIRECTION ( 'NONE',  ( 0.000000000000000000, 0.000000000000000000, 1.000000000000000000 ) ) ;
#193 = ADVANCED_FACE ( 'NONE', ( #275 ), #233, .T. ) ;
#194 = AXIS2_PLACEMENT_3D ( 'NONE', #99, #164, #76 ) ;
#195 = DIRECTION ( 'NONE',  ( 0.000000000000000000, 0.000000000000000000, 1.000000000000000000 ) ) ;
#196 = ADVANCED_FACE ( 'NONE', ( #80 ), #15, .T. ) ;
#197 = AXIS2_PLACEMENT_3D ( 'NONE', #268, #295, #188 ) ;
#198 = DIRECTION ( 'NONE',  ( -1.000000000000000000, -0.000000000000000000, -0.000000000000000000 ) ) ;
#199 = CONICAL_SURFACE ( 'NONE', #302, 1.600000000000000755, 0.7853981633974482790 ) ;
#200 = VECTOR ( 'NONE', #72, 1000.000000000000114 ) ;
#201 = CIRCLE ( 'NONE', #49, 1.600000000000000755 ) ;
#202 = VERTEX_POINT ( 'NONE', #187 ) ;
#203 = PRODUCT ( 'Sign_Pin', 'Sign_Pin', '', ( #97 ) ) ;
#204 = ORIENTED_EDGE ( 'NONE', *, *, #240, .F. ) ;
#205 = ORIENTED_EDGE ( 'NONE', *, *, #216, .T. ) ;
#206 = AXIS2_PLACEMENT_3D ( 'NONE', #73, #162, #158 ) ;
#207 = DIRECTION ( 'NONE',  ( -1.000000000000000000, -0.000000000000000000, -0.000000000000000000 ) ) ;
#208 = DIRECTION ( 'NONE',  ( -1.000000000000000000, -0.000000000000000000, -0.000000000000000000 ) ) ;
#209 = EDGE_CURVE ( 'NONE', #66, #107, #191, .T. ) ;
#210 = DIRECTION ( 'NONE',  ( 0.000000000000000000, 0.000000000000000000, -1.000000000000000000 ) ) ;
#211 = CARTESIAN_POINT ( 'NONE',  ( -45.96000000000000085, 20.03999999999999559, -9.105000000000000426 ) ) ;
#212 = AXIS2_PLACEMENT_3D ( 'NONE', #317, #8, #70 ) ;
#213 = FACE_OUTER_BOUND ( 'NONE', #30, .T. ) ;
#214 = CARTESIAN_POINT ( 'NONE',  ( -45.96000000000000085, 20.03999999999999559, -8.304999999999999716 ) ) ;
#215 = DIRECTION ( 'NONE',  ( 0.000000000000000000, 0.000000000000000000, -1.000000000000000000 ) ) ;
#216 = EDGE_CURVE ( 'NONE', #251, #283, #279, .T. ) ;
#217 = CYLINDRICAL_SURFACE ( 'NONE', #271, 0.8000000000000003775 ) ;
#218 = ADVANCED_FACE ( 'NONE', ( #14, #323 ), #47, .F. ) ;
#219 = LINE ( 'NONE', #296, #59 ) ;
#220 = CIRCLE ( 'NONE', #206, 2.700000000000001066 ) ;
#221 = ORIENTED_EDGE ( 'NONE', *, *, #29, .F. ) ;
#222 = EDGE_CURVE ( 'NONE', #246, #132, #220, .T. ) ;
#223 = CIRCLE ( 'NONE', #270, 1.600000000000000755 ) ;
#224 = ORIENTED_EDGE ( 'NONE', *, *, #183, .T. ) ;
#225 = VERTEX_POINT ( 'NONE', #322 ) ;
#226 = VERTEX_POINT ( 'NONE', #156 ) ;
#227 = ORIENTED_EDGE ( 'NONE', *, *, #209, .F. ) ;
#228 = FACE_OUTER_BOUND ( 'NONE', #148, .T. ) ;
#229 = CARTESIAN_POINT ( 'NONE',  ( -45.96000000000000085, 20.03999999999999559, -8.304999999999999716 ) ) ;
#230 = DIRECTION ( 'NONE',  ( -1.000000000000000000, -0.000000000000000000, -0.000000000000000000 ) ) ;
#231 = PRODUCT_RELATED_PRODUCT_CATEGORY ( 'part', '', ( #203 ) ) ;
#232 = APPLICATION_PROTOCOL_DEFINITION ( 'draft international standard', 'automotive_design', 1998, #252 ) ;
#233 = CONICAL_SURFACE ( 'NONE', #61, 1.600000000000000755, 0.7853981633974482790 ) ;
#234 = DIRECTION ( 'NONE',  ( 0.000000000000000000, 0.000000000000000000, -1.000000000000000000 ) ) ;
#235 = VECTOR ( 'NONE', #154, 1000.000000000000000 ) ;
#236 = CARTESIAN_POINT ( 'NONE',  ( -51.00000000000000711, 20.03999999999999559, -8.304999999999999716 ) ) ;
#237 =( GEOMETRIC_REPRESENTATION_CONTEXT ( 3 ) GLOBAL_UNCERTAINTY_ASSIGNED_CONTEXT ( ( #239 ) ) GLOBAL_UNIT_ASSIGNED_CONTEXT ( ( #157, #262, #36 ) ) REPRESENTATION_CONTEXT ( 'NONE', 'WORKASPACE' ) );
#238 = DIRECTION ( 'NONE',  ( 0.000000000000000000, 0.000000000000000000, 1.000000000000000000 ) ) ;
#239 = UNCERTAINTY_MEASURE_WITH_UNIT (LENGTH_MEASURE( 1.000000000000000082E-05 ), #157, 'distance_accuracy_value', 'NONE');
#240 = EDGE_CURVE ( 'NONE', #259, #246, #314, .T. ) ;
#241 = CARTESIAN_POINT ( 'NONE',  ( -47.39999999999999858, 20.03999999999999559, -8.304999999999999716 ) ) ;
#242 = DIRECTION ( 'NONE',  ( 0.000000000000000000, 0.000000000000000000, -1.000000000000000000 ) ) ;
#243 = APPLICATION_PROTOCOL_DEFINITION ( 'draft international standard', 'automotive_design', 1998, #300 ) ;
#244 = DIRECTION ( 'NONE',  ( -1.000000000000000000, -0.000000000000000000, -0.000000000000000000 ) ) ;
#245 = EDGE_LOOP ( 'NONE', ( #27, #88, #4, #278 ) ) ;
#246 = VERTEX_POINT ( 'NONE', #186 ) ;
#247 = CIRCLE ( 'NONE', #12, 0.8000000000000003775 ) ;
#248 = ORIENTED_EDGE ( 'NONE', *, *, #306, .F. ) ;
#249 = EDGE_CURVE ( 'NONE', #283, #251, #286, .T. ) ;
#250 = EDGE_LOOP ( 'NONE', ( #175, #32, #152, #1 ) ) ;
#251 = VERTEX_POINT ( 'NONE', #320 ) ;
#252 = APPLICATION_CONTEXT ( 'automotive_design' ) ;
#253 = VECTOR ( 'NONE', #93, 1000.000000000000227 ) ;
#254 = CLOSED_SHELL ( 'NONE', ( #330, #168, #321, #83, #159, #11, #196, #218, #78, #109, #24, #193 ) ) ;
#255 = CARTESIAN_POINT ( 'NONE',  ( -46.55999999999999517, 20.03999999999999559, -8.304999999999999716 ) ) ;
#256 = CARTESIAN_POINT ( 'NONE',  ( -51.20000000000000284, 20.03999999999999559, -8.304999999999999716 ) ) ;
#257 = AXIS2_PLACEMENT_3D ( 'NONE', #79, #294, #169 ) ;
#258 = CARTESIAN_POINT ( 'NONE',  ( -46.55999999999999517, 20.03999999999999559, -8.304999999999999716 ) ) ;
#259 = VERTEX_POINT ( 'NONE', #90 ) ;
#260 = DIRECTION ( 'NONE',  ( 0.000000000000000000, 0.000000000000000000, -1.000000000000000000 ) ) ;
#261 = EDGE_CURVE ( 'NONE', #107, #66, #75, .T. ) ;
#262 =( NAMED_UNIT ( * ) PLANE_ANGLE_UNIT ( ) SI_UNIT ( $, .RADIAN. ) );
#263 = DIRECTION ( 'NONE',  ( 1.000000000000000000, 0.000000000000000000, 0.000000000000000000 ) ) ;
#264 = DIRECTION ( 'NONE',  ( 1.000000000000000000, -0.000000000000000000, -0.000000000000000000 ) ) ;
#265 = CARTESIAN_POINT ( 'NONE',  ( -47.39999999999999858, 20.03999999999999559, -8.304999999999999716 ) ) ;
#266 = ORIENTED_EDGE ( 'NONE', *, *, #249, .F. ) ;
#267 = PLANE ( 'NONE',  #194 ) ;
#268 = CARTESIAN_POINT ( 'NONE',  ( -47.39999999999999858, 20.03999999999999559, -8.304999999999999716 ) ) ;
#269 = CARTESIAN_POINT ( 'NONE',  ( -51.20000000000000284, 20.03999999999999559, -6.904999999999997584 ) ) ;
#270 = AXIS2_PLACEMENT_3D ( 'NONE', #69, #264, #42 ) ;
#271 = AXIS2_PLACEMENT_3D ( 'NONE', #331, #101, #195 ) ;
#272 = DIRECTION ( 'NONE',  ( -1.000000000000000000, -0.000000000000000000, -0.000000000000000000 ) ) ;
#273 = PRODUCT_DEFINITION_CONTEXT ( 'detailed design', #300, 'design' ) ;
#274 = EDGE_CURVE ( 'NONE', #111, #251, #285, .T. ) ;
#275 = FACE_OUTER_BOUND ( 'NONE', #126, .T. ) ;
#276 = CARTESIAN_POINT ( 'NONE',  ( -51.00000000000000711, 20.03999999999999559, -9.905000000000001137 ) ) ;
#277 = ORIENTED_EDGE ( 'NONE', *, *, #165, .T. ) ;
#278 = ORIENTED_EDGE ( 'NONE', *, *, #308, .F. ) ;
#279 = CIRCLE ( 'NONE', #309, 0.8000000000000003775 ) ;
#280 =( GEOMETRIC_REPRESENTATION_CONTEXT ( 3 ) GLOBAL_UNCERTAINTY_ASSIGNED_CONTEXT ( ( #120 ) ) GLOBAL_UNIT_ASSIGNED_CONTEXT ( ( #184, #288, #40 ) ) REPRESENTATION_CONTEXT ( 'NONE', 'WORKASPACE' ) );
#281 = ORIENTED_EDGE ( 'NONE', *, *, #282, .F. ) ;
#282 = EDGE_CURVE ( 'NONE', #202, #62, #291, .T. ) ;
#283 = VERTEX_POINT ( 'NONE', #35 ) ;
#284 = EDGE_LOOP ( 'NONE', ( #149, #71, #25, #204 ) ) ;
#285 = LINE ( 'NONE', #33, #127 ) ;
#286 = CIRCLE ( 'NONE', #104, 0.8000000000000003775 ) ;
#287 = VECTOR ( 'NONE', #121, 1000.000000000000114 ) ;
#288 =( NAMED_UNIT ( * ) PLANE_ANGLE_UNIT ( ) SI_UNIT ( $, .RADIAN. ) );
#289 = EDGE_CURVE ( 'NONE', #132, #246, #64, .T. ) ;
#290 = PLANE ( 'NONE',  #179 ) ;
#291 = LINE ( 'NONE', #160, #163 ) ;
#292 = EDGE_CURVE ( 'NONE', #226, #202, #18, .T. ) ;
#293 = DIRECTION ( 'NONE',  ( 1.000000000000000000, 0.000000000000000000, 0.000000000000000000 ) ) ;
#294 = DIRECTION ( 'NONE',  ( 1.000000000000000000, 0.000000000000000000, 0.000000000000000000 ) ) ;
#295 = DIRECTION ( 'NONE',  ( 1.000000000000000000, 0.000000000000000000, 0.000000000000000000 ) ) ;
#296 = CARTESIAN_POINT ( 'NONE',  ( -45.96000000000000085, 20.03999999999999559, -9.105000000000000426 ) ) ;
#297 = DIRECTION ( 'NONE',  ( 0.000000000000000000, 0.000000000000000000, -1.000000000000000000 ) ) ;
#298 = PRODUCT_DEFINITION ( 'UNKNOWN', '', #85, #273 ) ;
#299 = CARTESIAN_POINT ( 'NONE',  ( -45.96000000000000085, 20.03999999999999559, -7.504999999999999893 ) ) ;
#300 = APPLICATION_CONTEXT ( 'automotive_design' ) ;
#301 = LINE ( 'NONE', #276, #200 ) ;
#302 = AXIS2_PLACEMENT_3D ( 'NONE', #178, #6, #112 ) ;
#303 = ORIENTED_EDGE ( 'NONE', *, *, #216, .F. ) ;
#304 = AXIS2_PLACEMENT_3D ( 'NONE', #236, #20, #122 ) ;
#305 = VERTEX_POINT ( 'NONE', #211 ) ;
#306 = EDGE_CURVE ( 'NONE', #259, #225, #140, .T. ) ;
#307 = ORIENTED_EDGE ( 'NONE', *, *, #209, .T. ) ;
#308 = EDGE_CURVE ( 'NONE', #226, #312, #325, .T. ) ;
#309 = AXIS2_PLACEMENT_3D ( 'NONE', #182, #263, #41 ) ;
#310 = AXIS2_PLACEMENT_3D ( 'NONE', #13, #192, #143 ) ;
#311 = ORIENTED_EDGE ( 'NONE', *, *, #52, .F. ) ;
#312 = VERTEX_POINT ( 'NONE', #114 ) ;
#313 = FILL_AREA_STYLE_COLOUR ( '', #326 ) ;
#314 = LINE ( 'NONE', #95, #253 ) ;
#315 = ORIENTED_EDGE ( 'NONE', *, *, #52, .T. ) ;
#316 = CONICAL_SURFACE ( 'NONE', #333, 2.700000000000001066, 0.6981317007977317912 ) ;
#317 = CARTESIAN_POINT ( 'NONE',  ( -47.39999999999999858, 20.03999999999999559, -8.304999999999999716 ) ) ;
#318 = DIRECTION ( 'NONE',  ( 0.000000000000000000, 0.000000000000000000, -1.000000000000000000 ) ) ;
#319 = AXIS2_PLACEMENT_3D ( 'NONE', #229, #39, #10 ) ;
#320 = CARTESIAN_POINT ( 'NONE',  ( -46.55999999999999517, 20.03999999999999559, -7.504999999999999893 ) ) ;
#321 = ADVANCED_FACE ( 'NONE', ( #177 ), #316, .T. ) ;
#322 = CARTESIAN_POINT ( 'NONE',  ( -47.39999999999999858, 20.03999999999999559, -6.309843690188914778 ) ) ;
#323 = FACE_OUTER_BOUND ( 'NONE', #128, .T. ) ;
#324 = DIRECTION ( 'NONE',  ( 0.7660444431189781245, 7.871877887341983831E-17, 0.6427876096865391409 ) ) ;
#325 = LINE ( 'NONE', #9, #235 ) ;
#326 = COLOUR_RGB ( '',0.7921568627450980005, 0.8196078431372548767, 0.9333333333333333481 ) ;
#327 = CARTESIAN_POINT ( 'NONE',  ( -51.00000000000000711, 20.03999999999999559, -8.304999999999999716 ) ) ;
#328 = CARTESIAN_POINT ( 'NONE',  ( -51.00000000000000711, 20.03999999999999559, -9.905000000000001137 ) ) ;
#329 = CARTESIAN_POINT ( 'NONE',  ( -46.55999999999999517, 20.03999999999999559, -5.604999999999998650 ) ) ;
#330 = ADVANCED_FACE ( 'NONE', ( #228 ), #199, .T. ) ;
#331 = CARTESIAN_POINT ( 'NONE',  ( -45.96000000000000085, 20.03999999999999559, -8.304999999999999716 ) ) ;
#332 = FACE_OUTER_BOUND ( 'NONE', #250, .T. ) ;
#333 = AXIS2_PLACEMENT_3D ( 'NONE', #255, #134, #210 ) ;
#334 = STYLED_ITEM ( 'NONE', ( #139 ), #21 ) ;
#335 = ORIENTED_EDGE ( 'NONE', *, *, #222, .T. ) ;
ENDSEC;
END-ISO-10303-21;
